<svg width="36" height="35" viewBox="0 0 36 35" fill="none" xmlns="http://www.w3.org/2000/svg">
<ellipse cx="18" cy="17.5" rx="18" ry="17.5" fill="#A9CC52"/>
<path d="M14.8156 17.0589C15.9356 19.26 17.74 21.0567 19.9411 22.1844L21.6522 20.4733C21.8622 20.2633 22.1733 20.1933 22.4456 20.2867C23.3167 20.5744 24.2578 20.73 25.2222 20.73C25.65 20.73 26 21.08 26 21.5078V24.2222C26 24.65 25.65 25 25.2222 25C17.9189 25 12 19.0811 12 11.7778C12 11.35 12.35 11 12.7778 11H15.5C15.9278 11 16.2778 11.35 16.2778 11.7778C16.2778 12.75 16.4333 13.6833 16.7211 14.5544C16.8067 14.8267 16.7444 15.13 16.5267 15.3478L14.8156 17.0589Z" fill="white"/>
</svg>
