<svg width="1112" height="347" viewBox="0 0 1112 347" fill="none" xmlns="http://www.w3.org/2000/svg">
<rect width="1112" height="347" rx="14" fill="#FCFCFD"/>
<path d="M123 118V118C55.069 118 0 173.069 0 241V342V342C67.931 342 123 286.931 123 219V118Z" fill="#CECFDA" fill-opacity="0.11"/>
<path d="M971 243V243C1038.93 243 1094 187.931 1094 120V19V19C1026.07 19 971 74.069 971 142V243Z" fill="#CECFDA" fill-opacity="0.08"/>
<path d="M211 88V88C167.922 88 133 122.922 133 166V230V230C176.078 230 211 195.078 211 152V88Z" fill="#CECFDA" fill-opacity="0.26"/>
<path d="M883 273V273C926.078 273 961 238.078 961 195V131V131C917.922 131 883 165.922 883 209V273Z" fill="#CECFDA" fill-opacity="0.15"/>
</svg>
